<?xml version="1.0" encoding="UTF-8"?>
<svg width="87px" height="45px" viewBox="0 0 87 45" version="1.1" xmlns="http://www.w3.org/2000/svg" xmlns:xlink="http://www.w3.org/1999/xlink">
    <!-- Generator: Sketch 50.2 (55047) - http://www.bohemiancoding.com/sketch -->
    <title>true-logo-vector</title>
    <desc>Created with Sketch.</desc>
    <defs></defs>
    <g id="ICO-Website" stroke="none" stroke-width="1" fill="none" fill-rule="evenodd">
        <g id="Desktop-HD-Copy" transform="translate(-212.000000, -2849.000000)" fill="#4B49FF" fill-rule="nonzero">
            <g id="true-logo-vector" transform="translate(212.057609, 2849.000000)">
                <path d="M51.6433424,34.0553448 C44.4888395,35.6809401 36.5970947,38.1884973 24.5691578,37.9830316 C18.0215478,37.8711833 14.5315435,35.8768392 14.0991452,32 C12.0763347,33.4504809 11.0436742,35.3674311 11.0011637,37.7508513 C10.937398,41.325982 13.4737076,44.822502 23.6664364,44.9966177 C33.8591652,45.1707334 51.3527951,38.5638069 60.8352764,38.7257898 C66.7326541,38.8265309 68.9925919,40.5390314 67.6150895,43.8632912 C70.4949947,42.8295633 71.9564386,41.1077637 71.9994207,38.697892 C72.0248087,37.2744748 71.2138122,36.0581999 69.9394357,35.1018322 C67.6368902,34.8521778 65.3980419,34.0843126 63.5553331,32.8180688 C63.0737099,32.7646519 62.5930184,32.7334363 62.1198451,32.7253533 C60.7275654,32.70157 59.3699835,32.7756689 58.0230861,32.9222515 C56.7457797,33.8820024 55.3030033,34.3776041 53.7273485,34.3776041 C52.9639075,34.3776041 52.2680102,34.2655951 51.6433424,34.0553448 Z" id="swoosh"></path>
                <path d="M67.703337,22.5272451 C66.6182297,25.3322922 65.7190793,29.2950825 68.2639646,30.7797486 C68.8811177,31.1399023 71.4542265,31.9731117 75.1185987,29.1253606 C79.7492899,25.5265263 83.8180786,16.3639231 80.3581769,12.4815691 C79.7723469,11.824208 79.5181077,11.7759085 78.9641232,11.5442628 C80.7855635,11.4453971 82.8127799,11.8158384 84.4040822,13.4192242 C88.2191537,17.2634792 84.7956216,26.7166638 78.3569762,31.6605602 C74.3483976,34.7384752 67.9787501,34.4691663 64.0295113,31.6927309 C61.3027347,29.7756632 60.9017821,26.7723075 61.0038013,24.5955213 C59.1967475,30.2222349 56.6278168,33.0355919 53.29701,33.0355919 C48.3362356,33.0355919 48.3892596,27.0773559 49.2803722,25.8268415 C48.8924249,26.3783692 45.0651117,33.3410461 40.2951479,33.3410461 C35.5251843,33.3410461 35.1512539,28.817017 35.1512539,27.5451673 C35.1512539,26.2733177 36.2657398,22.3954769 37.5791777,19.9432788 C38.4548027,18.30848 39.514476,16.33276 40.7581978,14.0161187 C40.0816629,14.6189456 39.376998,14.9255153 38.6442029,14.9358279 C37.9095736,14.9461663 38.2646607,14.0093218 38.9638792,13.5155272 C39.6630976,13.0217327 40.6571454,11.375916 42.3510417,11.375916 C44.2783261,11.375916 45.9774218,13.1459486 45.9555681,14.4932134 C45.9239481,16.4425261 44.6070537,18.8146979 43.29622,21.6529414 C41.9853865,24.4911848 41.0319908,28.3650845 43.0875582,28.3650845 C45.1431253,28.3650845 48.3617738,23.7268127 50.1714852,20.7286994 C51.3779595,18.7299572 52.6555983,16.5655962 54.0044023,14.2356164 C53.1387064,14.6674539 52.5632016,14.8833727 52.2778874,14.8833727 C51.8499165,14.8833727 52.0021953,14.5222325 52.4182716,13.981086 C52.8343479,13.4399396 53.8664879,11.3976554 55.8214085,11.3976554 C57.776329,11.3976554 59.799654,12.4132423 59.799654,14.4932134 C59.799654,17.0743427 58.552113,18.687656 56.9375852,21.4059434 C55.3230575,24.1242308 54.2196614,27.8069602 55.9058559,27.8069602 C56.9501331,27.8069602 58.8383505,25.3773394 61.5705083,20.5180976 C64.5018529,14.1644182 68.2522588,9.91961021 74.9926101,11.8848875 C82.3013425,14.0159058 76.1644436,27.1170089 70.961235,26.7592092 C67.8950014,26.5484546 67.5316904,24.2488668 67.7011457,22.5238673 L67.703337,22.5272451 Z M68.1949527,21.3514738 L68.1943739,21.3595529 L68.19402,21.3613906 C68.2517014,22.1549057 68.3659512,23.1784024 69.2403766,23.3601115 C70.8751834,23.6997771 72.4618745,20.7089583 73.3069029,19.0876999 C75.2246621,15.408134 74.3906836,11.3876818 69.0905474,19.5991165 C68.9447249,19.8250156 68.5907853,20.4709675 68.1949527,21.3514738 Z M11.7621293,10.0212309 C9.27484705,10.4379598 6.9620242,10.582909 5.06404198,10.1087402 C1.14491215,9.12963242 -0.499417433,6.69651715 0.131053246,2.80939449 C0.996528431,3.88857257 2.14202024,4.6062275 3.56752867,4.96235922 C12.5180622,7.19845182 24.5518094,-1.47263465 31.3306221,0.220901604 C35.7186108,1.31714345 36.0131698,4.50490027 35.7978494,5.43173071 C35.139615,8.26504987 32.4700021,9.91064373 31.4603607,9.88984602 C31.12734,9.88298611 30.9097367,9.73694588 30.8075509,9.45172537 C31.4597572,8.93447917 31.5613481,7.56933387 29.9111903,7.22268084 C27.1168698,6.63567049 23.362354,7.39165998 19.4622282,8.31361553 C16.8189343,12.4312973 14.5449582,16.9158109 12.6402998,21.7671564 C10.4010476,27.4707441 10.0325968,30.8259983 11.5349472,31.8329193 C10.8086375,33.2776397 9.48824438,34 7.57376789,34 C6.59812085,34 3.92160981,33.0868478 3.92160981,30.3485017 C3.92160981,27.6101554 4.84560804,25.4910342 6.18472155,21.7671564 C6.94545865,19.6516584 8.8045946,15.7363499 11.7621293,10.0212309 Z M19.931634,14.6351967 C19.3658673,15.0235016 18.9665956,15.210299 18.7338191,15.195589 C18.4331818,15.1973478 18.4102995,14.6647674 19.699095,13.1988921 C20.735959,12.0195636 20.92232,11.3799 22.75756,11.3799 C28.6710103,11.3799 23.4567068,17.818476 23.5201494,19.2057568 C25.291874,17.7349801 28.3812442,11.375916 31.7610485,11.375916 C36.926769,11.375916 34.6795972,16.0741743 33.7733338,17.4501632 C32.8670704,18.8261522 30.4893358,22.9554322 31.54375,22.9554322 C32.213156,22.9554322 34.3793525,19.8493648 35.6262409,18.3743697 C36.0652098,17.8550957 36.60829,17.7955564 36.3080755,18.3743697 C34.6004374,21.6666953 31.4709084,26.4077383 29.6169742,26.4077383 C29.0238217,26.4077383 26.5663143,26.3390438 26.5663143,23.1801203 C26.5663143,20.0211969 28.0447141,19.110084 27.5221822,18.5319545 C26.9996503,17.9538249 24.8318169,19.4621453 22.75756,23.1097997 C20.6833032,26.7574541 20.2483591,30.4450782 20.2901317,31.2079581 C20.3179801,31.7165447 20.7024312,32.0870265 21.4434851,32.3194041 C20.1359988,33.4108317 19.017726,33.9464411 18.0886669,33.9262318 C16.6950783,33.8959181 14.7735915,33.5811296 14.478681,30.4277931 C14.2136535,27.5939812 16.0313045,22.3297824 19.931634,14.6351967 Z" id="white"></path>
            </g>
        </g>
    </g>
</svg>