<svg xmlns="http://www.w3.org/2000/svg" xmlns:xlink="http://www.w3.org/1999/xlink" width="18" height="19" viewBox="0 0 18 19"><defs><path id="29t4a" d="M426.29 9552.674c-4.82 0-8.764 3.944-8.764 8.765 0 4.82 3.944 8.764 8.764 8.764 4.82 0 8.766-3.944 8.766-8.764 0-4.821-3.945-8.765-8.766-8.765zm4.205 7.169c-.104.036-.223.026-.376.043.12-.52.014-.732-.422-.707-.821.049-1.638.175-2.454.287-.097.013-.206.121-.263.214-.89 1.452-1.65 2.965-2.096 4.617-.12.448-.257.907.046 1.355.034.049-.026.197-.081.268-.256.332-.78.462-1.204.317-.45-.155-.695-.484-.691-.966.01-.991.435-1.868.806-2.75.36-.859.795-1.686 1.162-2.453-.63-.062-1.292-.047-1.91-.204-.881-.222-1.247-.932-1.036-1.791.987.819 2.103.658 3.199.374 1.147-.297 2.267-.694 3.405-1.027.649-.189 1.31-.279 1.968-.023.56.219.906.665.906 1.159 0 .47-.476 1.118-.96 1.287z"/></defs><g><g transform="translate(-417 -9552)"><use fill="#c7c7c7" xlink:href="#29t4a"/></g></g></svg>