<svg xmlns="http://www.w3.org/2000/svg" xmlns:xlink="http://www.w3.org/1999/xlink" width="18" height="19" viewBox="0 0 18 19"><defs><path id="b3zha" d="M455.328 9552.674c4.821 0 8.765 3.944 8.765 8.764 0 4.822-3.944 8.766-8.765 8.766-4.821 0-8.765-3.945-8.765-8.766 0-4.82 3.944-8.764 8.765-8.764zm-2.191 6.646a.81.81 0 0 0 .803-.803.81.81 0 0 0-.803-.803.81.81 0 0 0-.803.803.81.81 0 0 0 .803.803zm.733 5.04v-4.38h-1.46v4.38zm5.11-2.483c0-2.336-2.264-2.264-2.921-1.095v-.804h-1.461v4.383h1.461v-2.119c0-1.241 1.461-1.387 1.461 0v2.119h1.46z"/></defs><g><g transform="translate(-446 -9552)"><use fill="#c7c7c7" xlink:href="#b3zha"/></g></g></svg>