<?xml version="1.0" encoding="UTF-8"?>
<svg width="50px" height="50px" viewBox="0 0 50 50" version="1.1" xmlns="http://www.w3.org/2000/svg" xmlns:xlink="http://www.w3.org/1999/xlink">
    <!-- Generator: Sketch 50.2 (55047) - http://www.bohemiancoding.com/sketch -->
    <title>Group 27</title>
    <desc>Created with Sketch.</desc>
    <defs></defs>
    <g id="ICO-Website" stroke="none" stroke-width="1" fill="none" fill-rule="evenodd">
        <g id="Desktop-HD-Copy" transform="translate(-1173.000000, -2282.000000)">
            <g id="Group-11" transform="translate(1157.000000, 2264.000000)">
                <g id="Group-27" transform="translate(16.000000, 18.000000)">
                    <circle id="Oval-5" fill="#4A90E2" cx="25" cy="25" r="25"></circle>
                    <g id="noun_news_1206396" transform="translate(11.000000, 12.000000)" fill="#FFFFFF" fill-rule="nonzero">
                        <path d="M5.03472222,26 L24.7708333,26 C26.9953136,26 28.7986111,24.2362733 28.7986111,22.0606061 L28.7986111,6.3030303 C28.7986111,5.86789686 28.4379516,5.51515152 27.9930556,5.51515152 L22.3541667,5.51515152 L22.3541667,0.787878788 C22.3541667,0.352745349 21.9935072,0 21.5486111,0 L1.00694444,0 C0.562048396,0 0.201388889,0.352745349 0.201388889,0.787878788 L0.201388889,21.2727273 C0.201388889,23.8835279 2.36534593,26 5.03472222,26 Z M22.3541667,7.09090909 L27.1875,7.09090909 L27.1875,22.0606061 C27.1875,23.3660064 26.1055215,24.4242424 24.7708333,24.4242424 C23.4361452,24.4242424 22.3541667,23.3660064 22.3541667,22.0606061 L22.3541667,7.09090909 Z M1.8125,1.57575758 L20.7430556,1.57575758 L20.7430556,22.0606061 C20.7430556,22.9129736 21.0257164,23.7423484 21.5486111,24.4242424 L5.03472222,24.4242424 C3.25513803,24.4242424 1.8125,23.013261 1.8125,21.2727273 L1.8125,1.57575758 Z" id="Shape"></path>
                        <path d="M4.22916667,10.5024242 L18.3263889,10.5024242 C18.7712849,10.5024242 19.1319444,10.1496789 19.1319444,9.71454545 L19.1319444,5.64909091 C19.1319444,5.21395747 18.7712849,4.86121212 18.3263889,4.86121212 L4.22916667,4.86121212 C3.78427062,4.86121212 3.42361111,5.21395747 3.42361111,5.64909091 L3.42361111,9.71454545 C3.42361111,10.1496789 3.78427062,10.5024242 4.22916667,10.5024242 Z M5.03472222,6.4369697 L17.5208333,6.4369697 L17.5208333,8.92666667 L5.03472222,8.92666667 L5.03472222,6.4369697 Z" id="Shape"></path>
                        <rect id="Rectangle-path" x="3.42361111" y="15.6236364" width="15.7083333" height="1.57575758"></rect>
                        <rect id="Rectangle-path" x="3.42361111" y="12.4721212" width="15.7083333" height="1.57575758"></rect>
                        <rect id="Rectangle-path" x="3.42361111" y="18.7751515" width="7.65277778" height="1.57575758"></rect>
                    </g>
                </g>
            </g>
        </g>
    </g>
</svg>