<svg xmlns="http://www.w3.org/2000/svg" xmlns:xlink="http://www.w3.org/1999/xlink" width="18" height="19" viewBox="0 0 18 19"><defs><path id="sazwa" d="M483.688 9552.674c-4.82 0-8.764 3.945-8.764 8.765s3.944 8.765 8.764 8.765c4.82 0 8.766-3.944 8.766-8.765 0-4.82-3.945-8.765-8.766-8.765zm4.456 7.012c.146 2.922-2.045 6.209-5.99 6.209-1.168 0-2.263-.365-3.213-.95 1.096.146 2.19-.146 3.14-.876-.95 0-1.68-.657-1.971-1.461.365.073.657.073.949 0-1.022-.22-1.68-1.096-1.68-2.118.292.146.585.218.95.292-.95-.658-1.17-1.826-.658-2.776 1.023 1.242 2.557 2.118 4.31 2.192-.293-1.316.657-2.557 2.045-2.557.584 0 1.169.219 1.534.657.51-.073.949-.292 1.314-.51-.146.51-.511.876-.95 1.168.439-.074.804-.146 1.17-.366-.22.439-.585.804-.95 1.096z"/></defs><g><g transform="translate(-475 -9552)"><use fill="#c7c7c7" xlink:href="#sazwa"/></g></g></svg>