<svg xmlns="http://www.w3.org/2000/svg" xmlns:xlink="http://www.w3.org/1999/xlink" width="330" height="330" viewBox="0 0 330 330"><defs><path id="m8cza" d="M471.942 7432c-3.636 0-7.854.147-11.48.401l1.91 27.335c3.16-.255 6.352-.397 9.57-.434z"/><path id="m8czb" d="M460.46 7432.402c-18.136 1.268-33.32 4.773-50.176 11.584l10.438 25.833a136.532 136.532 0 0 1 41.65-10.082z"/><path id="m8czc" d="M420.722 7469.819l-10.438-25.833c-33.713 13.62-58.657 34.552-77.925 65.388l24.283 15.174c15.023-24.325 37.422-43.608 64.08-54.73z"/><path id="m8czd" d="M336.231 7596.6c0-26.427 7.473-51.106 20.41-72.053l-24.283-15.174c-46.245 74.006-27.763 169.087 42.838 220.38l16.586-22.828c-33.706-25.022-55.55-65.121-55.55-110.324z"/><path id="m8cze" d="M473.55 7733.92c-30.635 0-58.924-10.037-81.768-26.995l-16.586 22.83c73.542 53.431 176.474 37.128 229.906-36.414l-21.013-15.267c-25.007 33.872-65.205 55.845-110.539 55.845z"/><path id="m8czf" d="M636.537 7596.595c0-90.903-73.691-164.595-164.594-164.595v27.302c.536-.006 1.07-.02 1.608-.02 75.839 0 137.319 61.479 137.319 137.319 0 30.504-9.953 58.682-26.78 81.473l21.012 15.267c21.373-29.417 31.435-60.386 31.435-96.746z"/></defs><g><g transform="translate(-307 -7432)"><use fill="#ee9252" xlink:href="#m8cza"/></g><g transform="translate(-307 -7432)"><use fill="#68b1ff" xlink:href="#m8czb"/></g><g transform="translate(-307 -7432)"><use fill="#51ceba" xlink:href="#m8czc"/></g><g transform="translate(-307 -7432)"><use fill="#7d52da" xlink:href="#m8czd"/></g><g transform="translate(-307 -7432)"><use fill="#371e80" xlink:href="#m8cze"/></g><g transform="translate(-307 -7432)"><use fill="#6e69ff" xlink:href="#m8czf"/></g></g></svg>