<?xml version="1.0" encoding="UTF-8"?>
<svg width="316px" height="316px" viewBox="0 0 316 316" version="1.1" xmlns="http://www.w3.org/2000/svg" xmlns:xlink="http://www.w3.org/1999/xlink">
    <!-- Generator: Sketch 50.2 (55047) - http://www.bohemiancoding.com/sketch -->
    <title>Group 15</title>
    <desc>Created with Sketch.</desc>
    <defs></defs>
    <g id="ICO-Website" stroke="none" stroke-width="1" fill="none" fill-rule="evenodd">
        <g id="Desktop-HD-Copy" transform="translate(-785.000000, -4608.000000)">
            <g id="Group-15" transform="translate(946.057609, 4773.000000) scale(-1, 1) translate(-946.057609, -4773.000000) translate(816.057609, 4639.000000)">
                <path d="M260,134 C260,108.342735 253.004315,84.369674 240.871816,63.9968861 C230.488904,46.5619886 216.34388,31.7638674 199.601826,20.8034528 C179.478735,7.62959569 155.603764,0 130,0 C108.67036,0 88.5405019,5.29493885 70.7800703,14.6791844 C51.1719511,25.0397099 34.4519038,40.3846541 22.1939134,59.0916017 C8.18166278,80.4757297 0,106.253001 0,134 C0,164.505815 9.88951063,192.630739 26.5441341,215.154241 C40.3623061,233.841761 58.8374819,248.673344 80.1851736,257.809594 C95.5272683,264.375607 112.353008,268 130,268 C160.716115,268 188.944128,257.019391 211.191015,238.658674 M240.871816,203.501055 C245.184014,195.798411 250.57935,184.988693 253.352186,176.417253" id="Path" stroke="#9B9B9B" stroke-width="8.58"></path>
                <path d="M253.352186,176.278075 C257.664542,162.958162 260,148.707132 260,133.894286 C260,108.257262 253.004315,84.3031136 240.871816,63.9463982 C230.488904,46.5252552 216.34388,31.7388085 199.601826,20.7870407 C179.478735,7.6235766 155.603764,0 130,0" id="Oval-23" stroke="#7ED321" stroke-width="60.918"></path>
                <path d="M201.428571,246.502674 C204.999705,244.121097 208.449704,241.5652 211.767044,238.846778 C224.19389,228.663495 234.759175,216.199536 242.857143,202.074866" id="Path" stroke="#F8E71C" stroke-width="18.018"></path>
                <path d="M0,133.283422 C0,163.626105 9.88951063,191.600629 26.5441341,214.003683 C40.3623061,232.59127 58.8374819,247.34354 80.1851736,256.430933 C95.5272683,262.961834 112.353008,266.566845 130,266.566845" id="Path" stroke="#3EAEFF" stroke-width="36.036"></path>
                <path d="M130,268 C153.472696,268 175.49182,261.609129 194.497314,250.429407 C197.353763,248.749139 200.142139,246.960697 202.857143,245.069519" id="Path" stroke="#4B49FF" stroke-width="25.74"></path>
                <path d="M130,0 C108.67036,0 88.5405019,5.26662367 70.7800703,14.6006861 C51.1719511,24.9058077 34.4519038,40.1686934 22.1939134,58.7756038 C8.18166278,80.0453782 0,105.684803 0,133.283422" id="Path" stroke="#FF496F" stroke-width="48.048"></path>
            </g>
        </g>
    </g>
</svg>