<svg xmlns="http://www.w3.org/2000/svg" xmlns:xlink="http://www.w3.org/1999/xlink" width="330" height="331" viewBox="0 0 330 331"><defs><path id="wn53a" d="M1042.07 7459.105v-27.47c-18.2 0-33.61 2.44-50.92 8.065l8.431 25.95a137.202 137.202 0 0 1 42-6.552c.163 0 .325.006.49.007z"/><path id="wn53b" d="M999.581 7465.65l-8.432-25.95c-34.62 11.249-60.994 30.41-82.39 59.86l21.898 15.91c16.948-23.183 40.985-40.852 68.924-49.82z"/><path id="wn53c" d="M908.758 7499.56c-21.396 29.45-31.471 60.454-31.471 96.857h26.976c0-30.27 9.802-58.247 26.394-80.946z"/><path id="wn53d" d="M904.263 7596.417h-26.976c0 72.805 44.62 134.22 113.863 156.718l8.43-25.95c-55.293-17.747-95.317-69.58-95.317-130.768z"/><path id="wn53e" d="M1172.251 7638.716c-17.836 55.139-69.592 95.02-130.67 95.02-14.65 0-28.761-2.303-42-6.552l-8.432 25.951c86.553 28.122 179.516-19.244 207.638-105.797z"/><path id="wn53f" d="M1206.852 7596.417c0-91.007-73.775-164.782-164.782-164.782v27.47c75.614.263 136.83 61.636 136.83 137.312 0 14.761-2.339 28.973-6.65 42.3l26.537 8.621c5.625-17.312 8.065-32.72 8.065-50.92z"/></defs><g><g transform="translate(-877 -7431)"><use fill="#ee9252" xlink:href="#wn53a"/></g><g transform="translate(-877 -7431)"><use fill="#68b1ff" xlink:href="#wn53b"/></g><g transform="translate(-877 -7431)"><use fill="#51ceba" xlink:href="#wn53c"/></g><g transform="translate(-877 -7431)"><use fill="#7d52da" xlink:href="#wn53d"/></g><g transform="translate(-877 -7431)"><use fill="#371e80" xlink:href="#wn53e"/></g><g transform="translate(-877 -7431)"><use fill="#6e69ff" xlink:href="#wn53f"/></g></g></svg>